<svg xmlns="http://www.w3.org/2000/svg" width="64" height="64" viewBox="0 0 64 64" fill="none">
  <rect width="64" height="64" rx="18" fill="#F8FAFC"/>
  <rect x="1.5" y="1.5" width="61" height="61" rx="16.5" stroke="#CBD5E1" stroke-opacity="0.8"/>
  <path d="M14 12H50V30L40 52H14V12Z" fill="url(#bg)"/>
  <path d="M46 12H50V52H40L46 30V12Z" fill="#FDBA74" fill-opacity="0.9"/>
  <path d="M18 45V19H22.2V31.7L28.7 23.7H33.8L27.1 31.9L34.2 45H29.4L24.2 35L22.2 37.4V45H18Z" fill="#020617"/>
  <path d="M37 45V19H41.2L46 31.6V19H50V45H45.9L41 32V45H37Z" fill="#020617"/>
  <defs>
    <linearGradient id="bg" x1="14" y1="12" x2="50" y2="52" gradientUnits="userSpaceOnUse">
      <stop stop-color="#CFFAFE"/>
      <stop offset="1" stop-color="#E2E8F0"/>
    </linearGradient>
  </defs>
</svg>
